<svg width="24" height="24" fill="none" xmlns="http://www.w3.org/2000/svg"><path d="M6.229 5.281a1.227 1.227 0 0 0-.838.67c-.111.227-.131.31-.13.548.003.551-.088.44 2.575 3.111L10.218 12l-2.382 2.39c-2.663 2.671-2.572 2.561-2.574 3.11-.002.497.241.888.69 1.109.225.111.31.131.547.13.553-.001.468.07 3.131-2.59L12 13.782l2.39 2.382c2.671 2.663 2.561 2.572 3.11 2.574a1.225 1.225 0 0 0 1.238-1.238c-.002-.549.089-.439-2.574-3.11L13.782 12l2.367-2.37c2.66-2.663 2.589-2.578 2.59-3.131a1.237 1.237 0 0 0-1.759-1.125c-.214.098-.498.368-2.61 2.477L12 10.218 9.63 7.851C7.598 5.822 7.229 5.47 7.04 5.383c-.252-.114-.59-.157-.811-.102" fill="#FFCF01" fill-rule="evenodd"/></svg>