<svg width="28" height="28" fill="none" xmlns="http://www.w3.org/2000/svg"><path d="M9.87 4.092a15.03 15.03 0 0 0-.706.133c-1.591.325-2.882.848-4.108 1.667-.866.577-1.053.837-1.631 2.263-1.245 3.073-2.122 7.14-2.196 10.185l-.025 1.05.292.44c.525.789 1.302 1.487 2.37 2.127 1.315.788 3.477 1.563 4.362 1.563a.95.95 0 0 0 .645-.257c.08-.081.361-.531.625-.999.264-.468.489-.86.499-.87.011-.01.232.022.492.073 1.045.202 1.618.25 3.021.253.839.002 1.539-.02 1.843-.057a24.866 24.866 0 0 0 1.664-.273c.089-.022.156.073.58.826.546.968.642 1.097.904 1.216.232.106.409.109.939.016 1.631-.284 3.864-1.333 5.082-2.386.476-.412.96-.971 1.223-1.415l.208-.35-.029-.724c-.072-1.838-.295-3.513-.731-5.504-.561-2.562-1.609-5.559-2.248-6.426-.429-.583-1.768-1.398-3.128-1.904-.984-.366-2.626-.728-2.991-.659a.86.86 0 0 0-.496.36c-.04.073-.153.683-.45 2.412-.025.145-.037.154-.172.13-1.023-.179-2.956-.194-4.111-.031-.154.021-.296.025-.315.007-.018-.017-.128-.571-.243-1.23-.115-.66-.242-1.263-.282-1.34-.131-.253-.431-.354-.887-.296M9.528 6.63c.071.319.13.603.131.631 0 .028-.183.1-.407.158-1.122.294-2.524.861-2.709 1.096-.434.552 0 1.374.727 1.377.137.001.418-.085.887-.272 1.061-.422 1.829-.628 3.077-.824a14.256 14.256 0 0 1 4.641-.001c1.259.198 2.077.42 3.195.87.631.254.854.28 1.165.139.361-.164.586-.609.489-.968a1.034 1.034 0 0 0-.149-.315c-.19-.242-1.282-.697-2.468-1.031a14.484 14.484 0 0 1-.647-.19c-.024-.021.235-1.203.273-1.246.046-.054 1.217.257 1.73.459a7.55 7.55 0 0 1 1.522.779c.413.272.436.295.662.706.677 1.23 1.442 3.639 1.92 6.045.286 1.442.452 2.749.539 4.229l.03.515-.201.255c-.841 1.071-2.407 2.008-4.067 2.433-.304.078-.559.134-.566.125a21.218 21.218 0 0 1-.226-.372l-.213-.356.473-.198c.997-.417 1.746-.862 1.893-1.124.325-.577-.241-1.279-.965-1.197-.119.013-.471.157-.864.352-1.64.814-3.313 1.203-5.406 1.256-2.485.063-4.677-.391-6.434-1.332-.46-.247-.51-.263-.817-.264-.377-.002-.56.082-.783.358-.301.372-.199.856.24 1.144.342.223 1.056.589 1.576.807l.473.197-.21.356a9.375 9.375 0 0 1-.225.373c-.009.009-.264-.047-.569-.125-1.659-.425-3.226-1.362-4.067-2.433l-.199-.254.03-.539c.044-.78.154-1.884.26-2.612.414-2.842 1.353-6.104 2.2-7.64.226-.411.249-.435.661-.706a7.538 7.538 0 0 1 1.521-.778c.433-.171 1.617-.502 1.703-.477.024.008.102.274.174.594m.487 5.462c-.276.065-.685.301-.933.539-.299.285-.513.631-.668 1.074-.113.326-.127.43-.126.972.001.532.017.653.127.987.227.683.646 1.183 1.231 1.466 1.19.574 2.545-.202 2.938-1.683.105-.396.105-1.133-.001-1.54-.332-1.288-1.45-2.077-2.568-1.815m6.074.036c-1.001.331-1.633 1.314-1.638 2.549-.003.772.223 1.417.668 1.904.316.345.563.514.935.639 1.094.369 2.228-.301 2.646-1.563.108-.326.124-.451.125-.98.001-.542-.012-.646-.126-.972-.241-.69-.646-1.172-1.23-1.462a1.873 1.873 0 0 0-1.38-.115m-5.474 1.76c.297.297.374.938.164 1.347-.064.123-.16.253-.213.289-.086.056-.112.053-.216-.028a1.06 1.06 0 0 1-.222-.338c-.262-.608.129-1.628.487-1.27m6.265.107c.229.341.265.821.088 1.201-.142.304-.287.416-.423.326-.052-.035-.147-.164-.21-.287-.212-.411-.133-1.05.166-1.349.113-.113.258-.071.379.109" fill="#9277FF" fill-rule="evenodd"/></svg>