<svg width="24" height="24" fill="none" xmlns="http://www.w3.org/2000/svg"><path d="M4.733 4.281c-.344.069-.67.322-.846.656-.092.176-.106.25-.106.563 0 .313.014.387.106.563.127.241.374.474.628.592l.185.085h14.6l.185-.085c.254-.118.501-.351.628-.592.092-.176.106-.25.106-.563 0-.313-.014-.387-.106-.563a1.439 1.439 0 0 0-.628-.592L19.3 4.26l-7.2-.006c-3.96-.003-7.275.009-7.367.027m-.142 6.539a1.257 1.257 0 0 0-.748 1.64c.112.298.399.585.697.697l.223.083h14.474l.223-.083a1.28 1.28 0 0 0 .697-.697 1.258 1.258 0 0 0-.618-1.582l-.199-.098-7.3-.007c-6.114-.007-7.324.001-7.449.047m.142 6.461c-.344.069-.67.322-.846.656-.092.176-.106.25-.106.563 0 .313.014.387.106.563.127.241.374.474.628.592l.185.085h14.6l.185-.085c.254-.118.501-.351.628-.592.092-.176.106-.25.106-.563 0-.313-.014-.387-.106-.563a1.439 1.439 0 0 0-.628-.592l-.185-.085-7.2-.006c-3.96-.003-7.275.009-7.367.027" fill="#FFCF01" fill-rule="evenodd"/></svg>