<svg width="28" height="28" fill="none" xmlns="http://www.w3.org/2000/svg"><path d="M7.226 4.201a6.098 6.098 0 0 0-4.915 3.357c-.2.397-.45 1.138-.543 1.612-.095.481-.095 9.179 0 9.66.533 2.703 2.706 4.697 5.419 4.973.331.033 2.648.044 7.14.033 6.598-.016 6.653-.017 7.083-.116 1.445-.333 2.56-.99 3.44-2.026a6.054 6.054 0 0 0 1.401-3.074c.101-.654.101-8.586 0-9.24-.398-2.592-2.32-4.588-4.925-5.116-.362-.073-.969-.081-7.046-.09-3.657-.005-6.832.007-7.054.027m13.937 2.321c.784.218 1.545.699 2.023 1.279.316.382.676 1.1.785 1.563.08.341.086.656.086 4.636 0 4.864.017 4.626-.399 5.452-.506 1.005-1.279 1.648-2.404 2l-.417.131H7.163l-.417-.131c-1.368-.428-2.31-1.378-2.695-2.715l-.108-.374V9.637l.108-.374c.444-1.545 1.739-2.656 3.288-2.822.186-.02 3.288-.033 6.894-.03l6.557.007.373.104M11.142 9.213c-.284.101-.504.3-.625.565l-.112.244.013 4.034.012 4.035.141.228c.283.458.876.656 1.343.45.12-.053 1.609-.929 3.31-1.947 3.277-1.96 3.454-2.083 3.573-2.482a1.101 1.101 0 0 0-.237-1.079c-.158-.164-6.427-3.952-6.707-4.052a1.123 1.123 0 0 0-.711.004m2.936 3.904c.689.413 1.301.782 1.362.821.107.069.073.092-1.322.93-.788.472-1.441.859-1.452.859-.01 0-.019-.778-.019-1.729 0-1.692.002-1.727.09-1.68.049.027.653.386 1.341.799" fill="#F78787" fill-rule="evenodd"/></svg>